<svg version="1.2" xmlns="http://www.w3.org/2000/svg" viewBox="0 0 790 513" width="790" height="513">
	<title>remind-svg</title>
	<style>
		.s0 { fill: #e6e6e6 } 
		.s1 { fill: #a0616a } 
		.s2 { fill: #2f2e41 } 
		.s3 { fill: #cccccc } 
		.s4 { fill: #ffffff } 
	</style>
	<path id="Layer" class="s0" d="m720.6 510.7l-22.6-68.1c0 0 24.8 24.8 24.8 45.2l-4.4-47.1c0 0 12.7 17.2 11.4 43.3-1.3 26.1-9.2 26.7-9.2 26.7z"/>
	<path id="Layer" class="s0" d="m236 448.7l-22-66.5c0 0 24.2 24.3 24.2 44.1l-4.3-45.9c0 0 12.4 16.7 11.2 42.2-1.3 25.5-9.1 26.1-9.1 26.1z"/>
	<path id="Layer" class="s0" d="m579.7 479.4c0.1 43.7-86.6 30.2-192.8 30.3-106.1 0.1-191.5 13.7-191.6-30 0-43.7 86.7-53.3 192.8-53.4 106.2-0.1 191.6 9.3 191.6 53.1z"/>
	<path id="Layer" class="s1" d="m505.3 420.3h-13.8l-6.6-53.5h20.4v53.5z"/>
	<path id="Layer" class="s2" d="m480 416.4h28.3v16.8h-43.6v-1.5c0-2 0.4-4 1.2-5.9 0.7-1.8 1.9-3.5 3.3-5 1.4-1.4 3.1-2.5 4.9-3.3 1.9-0.7 3.9-1.1 5.9-1.1z"/>
	<path id="Layer" class="s1" d="m607.3 499.3h-13.8l-6.6-53.5h20.4v53.5z"/>
	<path id="Layer" class="s2" d="m582 495.4h28.3v16.8h-43.6v-1.5c0-2 0.4-4 1.2-5.9 0.7-1.8 1.9-3.5 3.3-5 1.4-1.4 3.1-2.5 4.9-3.3 1.9-0.7 3.9-1.1 5.9-1.1z"/>
	<path id="Layer" class="s1" d="m671.3 340.3c1-1.2 1.7-2.5 2.1-4 0.4-1.4 0.4-3 0.1-4.4-0.2-1.5-0.8-2.9-1.7-4.2-0.9-1.2-2-2.2-3.4-2.9l-32.2-131.3-20.6 8.8 38.3 127c-1.1 2.3-1.3 4.9-0.6 7.3 0.7 2.5 2.3 4.6 4.4 5.9 2.2 1.4 4.8 1.9 7.3 1.5 2.5-0.4 4.7-1.7 6.3-3.7z"/>
	<path id="Layer" class="s1" d="m646.2 75c-1.1-1.2-2.5-2.2-4.1-2.8-1.5-0.6-3.2-0.8-4.9-0.7-1.6 0.1-3.2 0.6-4.7 1.4-1.5 0.8-2.7 1.9-3.7 3.2l-49.9 5.7 7.6 19.3 45.4-8.5c2.3 1.5 5.2 2.1 7.9 1.6 2.8-0.4 5.3-1.9 7.1-4.1 1.7-2.1 2.6-4.9 2.5-7.7-0.1-2.8-1.2-5.4-3.2-7.4z"/>
	<path id="Layer" class="s2" d="m564 326.7l21.8 163.4 27.1-5.6c0 0-4-119 9.5-133.3 13.6-14.4-17.4-39.5-17.4-39.5z"/>
	<path id="Layer" class="s2" d="m573 281.7l-10 15c0 0-77-32-77 19 0 51-4.4 85.6-6 88-1.6 2.4 18.4 8.6 28 7 0 0 11.8-82.2 11-87 0 0 75.5 37 89.9 33.8 14.3-3.1 17.7-14.4 20.1-20.8 2.4-6.4-1-57-1-57l-47.8-14.6z"/>
	<path id="Layer" class="s3" d="m574.3 191.6l-2.8-3.4c0 0-31.9-71.8-19.4-91.2 12.6-19.4 67.3-22.2 69-21.1 1.7 1.1-4.1 16-0.1 22.8 0 0-42.4 9.2-45.2 10.3-2.9 1.2 21.9 43.3 21.9 43.3l-2.8 25.7z"/>
	<path id="Layer" class="s3" d="m630.2 156.3c0 0-29.6 3.4-30.8 3.4-1.1 0-1.7-7.4-1.7-7.4l-26.2 35.9c0 0-12.9 104.2-9.5 102.5 3.4-1.7 66.5 8.1 67.1 3.5 0.5-4.5-0.6-27.3 1.1-28.5 1.7-1.1 29.7-71.8 29.7-71.8 0 0-2.9-14.8-12.6-19.9-9.7-5.2-17.1-17.7-17.1-17.7z"/>
	<path id="Layer" class="s3" d="m650.7 184.2l9.2 9.7c0 0 13.5 111.4 6.1 114.8-7.4 3.4-22 3-22 3l-14.4-52.8z"/>
	<path id="Layer" class="s1" d="m601.7 149.2c-14.5 0-26.2-11.7-26.2-26.2 0-14.5 11.7-26.2 26.2-26.2 14.5 0 26.3 11.7 26.3 26.2 0 14.5-11.8 26.2-26.3 26.2z"/>
	<path id="Layer" class="s2" d="m595.6 127.1c-0.4-5.5-7.3-5.6-12.7-5.7-5.5 0-12 0.2-15.1-4.3-2-3-1.6-7.1 0.1-10.3 1.6-3.2 4.4-5.7 7.1-8 7.1-6.1 14.3-12.2 22.8-16.1 8.5-3.9 18.4-5.4 27.1-2.3 10.8 3.8 25.4 23.6 26.6 35 1.3 11.4-3.3 22.9-10.9 31.4-7.7 8.5-25.2 5.1-36.2 8.1 6.7-9.5 2.2-26.7-8.5-31.1z"/>
	<path id="Layer" class="s4" d="m361.7 466.5c-34.8 0-63-28.2-63-63 0-34.8 28.2-63 63-63 34.9 0 63 28.2 63 63 0 34.8-28.1 63-63 63z"/>
	<path id="Layer" class="s4" d="m319.7 336c-4.4 0-8.7-0.6-12.9-1.8-4.1-1.3-8.1-3.1-11.7-5.4-3.7-2.4-7-5.3-9.8-8.6-2.8-3.3-5.1-7-6.9-10.9l-100-225.1c-6.6-15.1-6.8-32.3-0.4-47.5 6.3-15.2 18.7-27.1 34.2-32.9 15.4-5.7 32.5-4.9 47.3 2.4 14.8 7.3 26 20.3 30.8 36.1l72.4 235.4c2.1 6.7 2.5 13.9 1.3 20.8-1.1 7-3.9 13.6-8.1 19.2-4.2 5.7-9.7 10.3-16 13.5-6.2 3.2-13.2 4.8-20.2 4.8z"/>
</svg>